# xmcd
#
# Track frame offsets:
#	182
#	18122
#	37427
#	57807
#	81525
#	101250
#	117870
#	137962
#	180595
#	196415
#	222750
#	250242
#
# Disc length: 3665
#
# Revision: 1
# Processed by: cddbd v1.5.1PL0 Copyright (c) Steve Scherf et al.
# Submitted via: EasyCDDAExtractor 5.0.5.1
# Normalized: r0:DSETVAR1
#
DISCID=a80e4f0c
DTITLE=Various Artist - Blues In Concert
DYEAR=1900
DGENRE=Blues
TTITLE0=Muddy Waters - Everythings Gonna Be Alright
TTITLE1=Clarence Gatemouth Brown - Pressure Cooker
TTITLE2=Bobby Blue Bland - I'll Take Care Of You
TTITLE3=Muddy Waters - Nine Below Zero
TTITLE4=Albert King - I'll Play The Blues For You
TTITLE5=Bobby Blue Bland - Soul of a Man
TTITLE6=Muddy Waters - Baby Please Don't Go
TTITLE7=Albert King - Stormy Monday Blues
TTITLE8=Bobby Blue Bland - Ain't That Lovin' You
TTITLE9=Muddy Waters - They Call Me Muddy Waters
TTITLE10=Clarence Gatemouth Brown - Frosty
TTITLE11=Albert King - Born Under a Bad Sign
EXTD=
EXTT0=
EXTT1=
EXTT2=
EXTT3=
EXTT4=
EXTT5=
EXTT6=
EXTT7=
EXTT8=
EXTT9=
EXTT10=
EXTT11=
PLAYORDER=
